<?xml version="1.0" standalone="no"?>
<!DOCTYPE svg PUBLIC "-//W3C//DTD SVG 20010904//EN"
 "http://www.w3.org/TR/2001/REC-SVG-20010904/DTD/svg10.dtd">
<svg version="1.0" xmlns="http://www.w3.org/2000/svg"
 width="480.000000pt" height="480.000000pt" viewBox="0 0 480.000000 480.000000"
 preserveAspectRatio="xMidYMid meet">
<metadata>
Created by potrace 1.13, written by Peter Selinger 2001-2015
</metadata>
<g transform="translate(0.000000,480.000000) scale(0.100000,-0.100000)"
fill="#000000" stroke="none">
<path d="M531 4435 l0 -314 314 0 315 0 0 210 0 211 -107 -4 -108 -3 3 107 4
107 -211 0 -210 0 0 -314z"/>
<path d="M960 4650 l0 -100 100 0 100 0 0 100 0 100 -100 0 -100 0 0 -100z"/>
<path d="M1170 4650 l0 -100 100 0 100 0 0 100 0 100 -100 0 -100 0 0 -100z"/>
<path d="M1380 4645 l0 -95 100 0 100 0 0 95 0 95 -100 0 -100 0 0 -95z"/>
<path d="M2010 4645 l0 -95 100 0 100 0 0 95 0 95 -100 0 -100 0 0 -95z"/>
<path d="M2440 4645 l0 -95 95 0 95 0 0 95 0 95 -95 0 -95 0 0 -95z"/>
<path d="M1170 4330 l0 -210 100 0 100 0 0 210 0 210 -100 0 -100 0 0 -210z"/>
<path d="M1380 4435 l0 -95 100 0 100 0 0 95 0 95 -100 0 -100 0 0 -95z"/>
<path d="M2010 4435 l0 -95 100 0 100 0 0 95 0 95 -100 0 -100 0 0 -95z"/>
<path d="M2440 4435 l0 -95 95 0 95 0 0 95 0 95 -95 0 -95 0 0 -95z"/>
<path d="M1380 4225 l0 -105 100 0 100 0 0 105 0 105 -100 0 -100 0 0 -105z"/>
<path d="M1590 4225 l0 -105 100 0 100 0 0 105 0 105 -100 0 -100 0 0 -105z"/>
<path d="M1800 4225 l0 -105 100 0 100 0 0 105 0 105 -100 0 -100 0 0 -105z"/>
<path d="M2017 4323 c-4 -3 -7 -51 -7 -105 l0 -98 100 0 100 0 0 105 0 105
-93 0 c-52 0 -97 -3 -100 -7z"/>
<path d="M530 4010 l0 -100 315 0 315 0 0 100 0 100 -315 0 -315 0 0 -100z"/>
<path d="M1170 4010 l0 -100 100 0 100 0 0 100 0 100 -100 0 -100 0 0 -100z"/>
<path d="M1380 4010 l0 -100 100 0 100 0 0 100 0 100 -100 0 -100 0 0 -100z"/>
<path d="M1590 4010 l0 -100 100 0 100 0 0 100 0 100 -100 0 -100 0 0 -100z"/>
<path d="M1800 4010 l0 -100 100 0 100 0 0 100 0 100 -100 0 -100 0 0 -100z"/>
<path d="M2440 4010 l0 -100 95 0 95 0 0 100 0 100 -95 0 -95 0 0 -100z"/>
<path d="M540 3800 l0 -100 95 0 95 0 0 100 0 100 -95 0 -95 0 0 -100z"/>
<path d="M750 3800 l0 -100 205 0 205 0 0 100 0 100 -205 0 -205 0 0 -100z"/>
<path d="M1170 3800 l0 -100 100 0 100 0 0 100 0 100 -100 0 -100 0 0 -100z"/>
<path d="M1380 3800 l0 -100 100 0 100 0 0 100 0 100 -100 0 -100 0 0 -100z"/>
<path d="M1590 3800 l0 -100 100 0 100 0 0 100 0 100 -100 0 -100 0 0 -100z"/>
<path d="M1800 3800 l0 -100 100 0 100 0 0 100 0 100 -100 0 -100 0 0 -100z"/>
<path d="M2010 3800 l0 -100 100 0 100 0 0 100 0 100 -100 0 -100 0 0 -100z"/>
<path d="M960 3590 l0 -100 100 0 100 0 0 100 0 100 -100 0 -100 0 0 -100z"/>
<path d="M1170 3590 l0 -100 100 0 100 0 0 100 0 100 -100 0 -100 0 0 -100z"/>
<path d="M1380 3590 l0 -100 100 0 100 0 0 100 0 100 -100 0 -100 0 0 -100z"/>
<path d="M1590 3590 l0 -100 100 0 100 0 0 100 0 100 -100 0 -100 0 0 -100z"/>
<path d="M1800 3590 l0 -100 100 0 100 0 0 100 0 100 -100 0 -100 0 0 -100z"/>
<path d="M2010 3590 l0 -100 100 0 100 0 0 100 0 100 -100 0 -100 0 0 -100z"/>
<path d="M960 3380 l0 -100 100 0 100 0 0 100 0 100 -100 0 -100 0 0 -100z"/>
<path d="M1170 3380 l0 -100 100 0 100 0 0 100 0 100 -100 0 -100 0 0 -100z"/>
<path d="M1380 3380 l0 -100 100 0 100 0 0 100 0 100 -100 0 -100 0 0 -100z"/>
<path d="M1590 3380 l0 -100 100 0 100 0 0 100 0 100 -100 0 -100 0 0 -100z"/>
<path d="M1800 3380 l0 -100 100 0 100 0 0 100 0 100 -100 0 -100 0 0 -100z"/>
<path d="M2010 3380 l0 -100 100 0 100 0 0 100 0 100 -100 0 -100 0 0 -100z"/>
<path d="M540 3170 l0 -100 95 0 95 0 0 100 0 100 -95 0 -95 0 0 -100z"/>
<path d="M750 3170 l0 -100 100 0 101 0 -3 98 -3 97 -97 3 -98 3 0 -101z"/>
<path d="M960 3170 l0 -100 100 0 100 0 0 100 0 100 -100 0 -100 0 0 -100z"/>
<path d="M1380 3170 l0 -100 100 0 100 0 0 100 0 100 -100 0 -100 0 0 -100z"/>
<path d="M1590 3170 l0 -100 100 0 100 0 0 100 0 100 -100 0 -100 0 0 -100z"/>
<path d="M1800 3170 l0 -100 100 0 100 0 0 100 0 100 -100 0 -100 0 0 -100z"/>
<path d="M2010 3170 l0 -100 100 0 100 0 0 100 0 100 -100 0 -100 0 0 -100z"/>
<path d="M2220 2960 l0 -100 100 0 100 0 0 100 0 100 -100 0 -100 0 0 -100z"/>
<path d="M2850 2960 l0 -100 105 0 105 0 0 100 0 100 -105 0 -105 0 0 -100z"/>
<path d="M3280 2960 l0 -100 100 0 100 0 0 100 0 100 -100 0 -100 0 0 -100z"/>
<path d="M3700 2960 l0 -100 100 0 100 0 0 100 0 100 -100 0 -100 0 0 -100z"/>
<path d="M164 2958 c-24 -11 -44 -48 -44 -79 0 -11 14 -34 30 -51 28 -28 36
-30 78 -25 54 6 82 33 82 81 0 36 -24 76 -46 76 -18 0 -18 -17 1 -36 20 -20
19 -58 -1 -78 -27 -28 -34 -18 -34 54 0 66 -1 70 -22 69 -13 0 -33 -5 -44 -11z"/>
<path d="M2432 2748 l3 -103 100 0 100 0 0 100 0 100 -103 3 -103 3 3 -103z"/>
<path d="M2650 2750 l0 -100 95 0 95 0 0 100 0 100 -95 0 -95 0 0 -100z"/>
<path d="M540 2745 l0 -95 95 0 95 0 0 95 0 95 -95 0 -95 0 0 -95z"/>
<path d="M750 2745 l0 -95 95 0 95 0 0 95 0 95 -95 0 -95 0 0 -95z"/>
<path d="M1170 2745 l0 -95 100 0 100 0 0 95 0 95 -100 0 -100 0 0 -95z"/>
<path d="M3490 2745 l0 -95 100 0 100 0 0 95 0 95 -100 0 -100 0 0 -95z"/>
<path d="M2642 2538 l3 -103 100 0 100 0 0 100 0 100 -103 3 -103 3 3 -103z"/>
<path d="M2430 2535 l0 -95 100 0 100 0 0 95 0 95 -100 0 -100 0 0 -95z"/>
<path d="M4120 2535 l0 -95 100 0 100 0 0 95 0 95 -100 0 -100 0 0 -95z"/>
<path d="M164 2558 c-24 -11 -44 -48 -44 -79 0 -11 14 -34 30 -51 28 -28 36
-30 78 -25 54 6 82 33 82 81 0 36 -24 76 -46 76 -18 0 -18 -17 1 -36 20 -20
19 -58 -1 -78 -27 -28 -34 -18 -34 54 0 66 -1 70 -22 69 -13 0 -33 -5 -44 -11z"/>
<path d="M2220 2325 l0 -105 100 0 100 0 0 105 0 105 -100 0 -100 0 0 -105z"/>
<path d="M2854 2417 c-2 -7 -4 -54 -2 -103 l3 -89 103 -3 103 -3 -3 103 -3
103 -98 3 c-75 2 -99 0 -103 -11z"/>
<path d="M3070 2315 l0 -105 -105 0 -105 0 0 -100 0 -99 205 0 205 0 0 204 -1
205 -99 0 -100 0 0 -105z"/>
<path d="M3280 2320 l0 -100 100 0 100 0 0 100 0 100 -100 0 -100 0 0 -100z"/>
<path d="M170 2315 c0 -42 3 -55 15 -55 11 0 15 11 15 40 0 48 18 53 55 15 33
-32 33 -84 1 -122 -21 -24 -32 -28 -76 -28 -44 0 -55 4 -76 28 -33 38 -32 90
1 121 27 25 33 46 13 46 -33 -1 -68 -53 -68 -100 1 -99 102 -158 195 -114 61
29 83 126 40 174 -15 17 -15 19 4 25 42 13 19 25 -49 25 l-70 0 0 -55z"/>
<path d="M2220 1900 l0 -100 100 0 100 0 0 100 0 100 -100 0 -100 0 0 -100z"/>
<path d="M2860 1900 l0 -100 100 0 100 0 0 100 0 100 -100 0 -100 0 0 -100z"/>
<path d="M3280 1900 l0 -100 100 0 100 0 0 100 0 100 -100 0 -100 0 0 -100z"/>
<path d="M3700 1900 l0 -100 100 0 100 0 0 100 0 100 -100 0 -100 0 0 -100z"/>
<path d="M4340 1900 l0 -100 95 0 95 0 0 100 0 100 -95 0 -95 0 0 -100z"/>
<path d="M2440 1690 l0 -100 95 0 95 0 0 100 0 100 -95 0 -95 0 0 -100z"/>
<path d="M3490 1690 l0 -100 100 0 100 0 0 100 0 100 -100 0 -100 0 0 -100z"/>
<path d="M2220 1480 l0 -100 100 0 100 0 0 100 0 100 -100 0 -100 0 0 -100z"/>
<path d="M3280 1480 l0 -100 100 0 100 0 0 100 0 100 -100 0 -100 0 0 -100z"/>
<path d="M3700 1480 l0 -100 100 0 100 0 0 100 0 100 -100 0 -100 0 0 -100z"/>
<path d="M4540 1480 l0 -100 105 0 105 0 0 100 0 100 -105 0 -105 0 0 -100z"/>
<path d="M3910 1270 l0 -100 100 0 100 0 0 100 0 100 -100 0 -100 0 0 -100z"/>
<path d="M4340 1270 l0 -100 95 0 95 0 0 100 0 100 -95 0 -95 0 0 -100z"/>
<path d="M4540 1270 l0 -100 105 0 105 0 0 100 0 100 -105 0 -105 0 0 -100z"/>
<path d="M2650 1060 l0 -100 95 0 95 0 0 100 0 100 -95 0 -95 0 0 -100z"/>
<path d="M4120 1060 l0 -100 100 0 100 0 0 100 0 100 -100 0 -100 0 0 -100z"/>
<path d="M4330 850 l0 -100 100 0 100 0 0 100 0 100 -100 0 -100 0 0 -100z"/>
<path d="M3280 845 l0 -95 100 0 100 0 0 95 0 95 -100 0 -100 0 0 -95z"/>
<path d="M3910 845 l0 -95 100 0 100 0 0 95 0 95 -100 0 -100 0 0 -95z"/>
<path d="M3700 635 l0 -105 100 0 100 0 0 105 0 105 -100 0 -100 0 0 -105z"/>
<path d="M3910 635 l0 -105 100 0 100 0 0 105 0 105 -100 0 -100 0 0 -105z"/>
<path d="M4540 635 l0 -105 105 0 105 0 0 105 0 105 -105 0 -105 0 0 -105z"/>
<path d="M2200 297 c-89 -45 -91 -190 -3 -232 41 -20 95 -15 123 10 17 15 19
15 25 -4 13 -42 25 -19 25 49 l0 70 -55 0 c-42 0 -55 -3 -55 -15 0 -11 11 -15
40 -15 48 0 53 -18 15 -55 -32 -33 -84 -33 -122 -1 -24 21 -28 32 -28 76 0 44
4 55 28 76 38 33 90 32 121 -1 25 -27 46 -33 46 -12 -1 51 -99 85 -160 54z"/>
<path d="M2428 210 c-28 -28 -30 -36 -25 -78 6 -54 33 -82 81 -82 36 0 76 24
76 46 0 18 -17 18 -36 -1 -20 -20 -58 -19 -78 1 -28 27 -18 34 54 34 77 0 84
8 59 63 -24 53 -87 60 -131 17z"/>
<path d="M2828 210 c-28 -28 -30 -36 -25 -78 6 -54 33 -82 81 -82 36 0 76 24
76 46 0 18 -17 18 -36 -1 -20 -20 -58 -19 -78 1 -28 27 -18 34 54 34 77 0 84
8 59 63 -24 53 -87 60 -131 17z"/>
</g>
</svg>
